

<?xml version="1.0" encoding="iso-8859-1"?>
<!-- Generator: Adobe Illustrator 19.0.0, SVG Export Plug-In . SVG Version: 6.00 Build 0)  -->
<svg version="1.1" id="Layer_1" xmlns="http://www.w3.org/2000/svg" xmlns:xlink="http://www.w3.org/1999/xlink" x="0px" y="0px"
	 viewBox="0 0 800 733" style="enable-background:new 0 0 800 733;" xml:space="preserve">
<polyline id="XMLID_44_" class="area1" points="246.518,264.512 
	231.018,266.512 215.518,277.012 206.518,288.012 191.018,278.012 187.518,288.012 149.768,275.512 145.518,288.012 99.768,281.262
	107.518,260.512 4.518,235.012 35.018,166.512 61.018,130.012 91.018,100.012 125.518,74.012 163.518,57.012 181.943,48.845
	199.518,120.012 210.018,118.012 218.518,163.012 224.518,161.012 246.518,264.512 "/>
<polygon id="XMLID_43_" style="fill:#CE112C;stroke:#5B0617;stroke-width:2;stroke-miterlimit:10;" points="181.943,48.845
	199.518,120.012 210.018,118.012 218.518,163.012 224.518,161.012 246.518,264.512 261.181,258.509 295.516,252.51 329.517,249.178
	364.184,246.178 398.184,247.512 435.518,247.512 466.518,248.262 503.851,251.887 537.851,257.366 555.268,261.606
	574.851,162.225 581.268,164.035 591.518,116.273 601.518,118.768 616.268,47.515 578.851,34.513 534.518,26.513 489.518,22.845
	445.184,19.512 399.518,19.512 355.184,20.928 309.851,22.22 264.184,27.033 221.184,36.272 "/>
<polygon id="XMLID_46_" style="fill:#D180E5;stroke:#530666;stroke-width:2;stroke-miterlimit:10;" points="616.268,47.512
	601.518,118.762 591.518,116.262 581.268,164.012 574.851,162.178 555.268,261.512 571.518,265.762 585.768,275.512
	596.518,299.012 658.709,286.44 697.018,280.512 691.018,258.262 793.268,231.262 787.768,214.262 773.268,180.262 753.018,146.512
	725.518,113.012 692.518,85.512 656.268,62.012 "/>
<polygon id="XMLID_47_" style="fill:#477BD6;stroke:#15004F;stroke-width:2;stroke-miterlimit:10;" points="613.17,455.772
	653.268,470.762 658.018,455.387 698.268,461.574 696.018,280.543 653.518,287.012 653.518,325.512 616.518,325.512 "/>
<polygon id="XMLID_45_" style="fill:#477BD6;stroke:#15004F;stroke-width:2;stroke-miterlimit:10;" points="742.518,454.137
	760.518,455.262 760.518,285.512 742.518,286.512 "/>
<polygon id="XMLID_1_" style="fill:#D180E5;stroke:#530666;stroke-width:2;stroke-miterlimit:10;" points="794.268,510.762
	691.018,483.762 698.268,461.512 658.018,455.262 653.268,470.512 613.143,455.262 610.268,467.262 592.518,457.012
	585.518,470.012 570.838,479.012 555.018,481.512 574.893,582.012 582.705,579.512 596.236,647.012 605.502,644.512 617.76,695.678
	656.143,680.137 694.393,656.762 727.184,628.012 753.851,596.178 773.851,562.512 787.184,529.512 "/>
<polygon id="XMLID_5_" style="fill:#CE112C;stroke:#5B0617;stroke-width:2;stroke-miterlimit:10;" points="555.018,481.512
	574.893,582.012 582.705,579.512 596.236,647.012 605.502,644.512 617.76,695.678 579.014,708.512 535.266,716.762 489.517,722.012
	445.017,726.012 400,727.512 355.518,727.512 310.268,724.012 265.768,717.762 221.268,709.887 183.768,697.824 199.768,626.293
	208.518,628.277 218.768,581.27 224.268,582.266 246.018,483.264 261.768,486.763 296.018,491.512 332.268,496.262 363.268,498.512
	400,499.762 434.268,497.762 469.518,494.762 503.268,491.762 537.518,485.262 "/>
<polygon id="XMLID_7_" style="fill:#D180E5;stroke:#530666;stroke-width:2;stroke-miterlimit:10;" points="246.018,483.262
	232.776,543.532 224.268,582.262 218.768,581.262 208.518,628.262 199.768,626.262 183.768,697.762 144.184,681.178
	105.851,659.512 73.184,631.512 45.851,600.178 25.184,566.178 11.184,530.845 4.851,513.178 108.518,486.178 101.018,464.262
	144.783,458.296 150.268,470.262 186.768,458.262 190.518,468.845 207.184,459.845 213.851,469.845 227.518,478.845 "/>
<polygon id="XMLID_6_" style="fill:#477BD6;stroke:#15004F;stroke-width:2;stroke-miterlimit:10;" points="36.518,458.262
	56.518,457.178 56.143,289.762 36.518,288.262 "/>
<polygon id="XMLID_9_" style="fill:#477BD6;stroke:#15004F;stroke-width:2;stroke-miterlimit:10;" points="101.018,464.262
	144.768,458.262 150.268,470.262 186.768,458.262 185.018,422.512 184.268,323.262 187.518,288.012 149.768,275.512
	145.518,288.262 99.768,281.262 "/>
<rect id="XMLID_8_" x="229.518" y="293.845" style="fill:none;stroke:#000000;stroke-width:2;stroke-miterlimit:10;" width="343" height="157.333"/>
<rect id="XMLID_10_" x="223.518" y="288.012" style="fill:none;stroke:#000000;stroke-width:2;stroke-miterlimit:10;" width="354.667" height="168.833"/>
<rect id="XMLID_11_" x="235.851" y="300.512" style="fill:#15004F;stroke:#040021;stroke-width:2;stroke-miterlimit:10;" width="26.667" height="145.333"/>
<rect id="XMLID_12_" x="540.184" y="300.512" style="fill:#15004F;stroke:#040021;stroke-width:2;stroke-miterlimit:10;" width="26.333" height="145.333"/>
<rect id="XMLID_13_" x="262.518" y="300.512" style="fill:#17913C;stroke:#003F04;stroke-width:2;stroke-miterlimit:10;" width="277.667" height="145.333"/>
<polygon id="XMLID_14_" style="fill:none;stroke:#000000;stroke-width:2;stroke-miterlimit:10;" points="351.351,287.512
	360.184,270.512 441.518,270.512 450.518,287.512 "/>
<polygon id="XMLID_15_" style="fill:none;stroke:#000000;stroke-width:2;stroke-miterlimit:10;" points="345.018,287.512
	356.518,264.512 444.518,264.512 457.518,287.512 "/>
<g id="XMLID_18_">
	<polygon id="XMLID_17_" style="fill:none;stroke:#000000;stroke-width:2;stroke-miterlimit:10;" points="450.184,456.512
		441.351,473.512 360.018,473.512 351.018,456.512 	"/>
	<polygon id="XMLID_16_" style="fill:none;stroke:#000000;stroke-width:2;stroke-miterlimit:10;" points="456.518,456.512
		445.018,479.512 357.018,479.512 344.018,456.512 	"/>
</g>
</svg>
